<mxfile host="app.diagrams.net" agent="Mozilla/5.0 (Windows NT 10.0; Win64; x64; rv:132.0) Gecko/20100101 Firefox/132.0" version="24.8.4">
  <diagram name="Seite-1" id="olYrKje9iJm6ewzjbzAU">
    <mxGraphModel grid="1" page="1" gridSize="10" guides="1" tooltips="1" connect="1" arrows="1" fold="1" pageScale="1" pageWidth="827" pageHeight="1169" math="0" shadow="0">
      <root>
        <mxCell id="0" />
        <mxCell id="1" parent="0" />
        <UserObject label="" tooltip="" btelligentADAPTType="LoosePrecedence" id="MNkCJ2_RyF4el_8wQc9y-23">
          <mxCell style="vsdxID=5;edgeStyle=elbowEdgeStyle;startArrow=none;endArrow=block;startSize=10;endSize=10;strokeColor=#000000;spacingTop=0;spacingBottom=0;spacingLeft=0;spacingRight=0;verticalAlign=middle;html=1;labelBackgroundColor=#FFFFFF;rounded=1;jumpStyle=arc;startFill=0;endFill=1;curved=0;orthogonal=0;orthogonalLoop=0;ignoreEdge=0;noJump=0;" edge="1" parent="1" source="YSzEwsqtf66Z9LX4W5IN-50" target="YSzEwsqtf66Z9LX4W5IN-2">
            <mxGeometry x="-0.1429" relative="1" as="geometry">
              <mxPoint x="440" y="380" as="sourcePoint" />
              <mxPoint x="360" y="380" as="targetPoint" />
              <mxPoint as="offset" />
            </mxGeometry>
          </mxCell>
        </UserObject>
        <object label="&lt;Hierarchy&gt;" btelligentADAPTType="Hierarchy" id="YSzEwsqtf66Z9LX4W5IN-2">
          <mxCell style="group;fillColor=default;align=left;verticalAlign=middle;spacingLeft=36;whiteSpace=wrap;resizable=0;connectable=1;" connectable="0" vertex="1" parent="1">
            <mxGeometry x="270" y="380" width="160" height="40" as="geometry" />
          </mxCell>
        </object>
        <mxCell id="MNkCJ2_RyF4el_8wQc9y-12" value="&lt;font style=&quot;font-size: 7px;&quot;&gt;ADAPT Hierarchy&lt;/font&gt;" style="shape=loopLimit;whiteSpace=wrap;html=1;size=20;verticalAlign=middle;spacingLeft=37;align=left;fontColor=none;fillColor=none;noLabel=1;connectable=0;editable=0;movable=0;resizable=0;rotatable=0;deletable=0;locked=0;recursiveResize=0;expand=0;cloneable=0;" vertex="1" parent="YSzEwsqtf66Z9LX4W5IN-2">
          <mxGeometry width="160" height="40" as="geometry" />
        </mxCell>
        <mxCell id="MNkCJ2_RyF4el_8wQc9y-13" value="" style="group;editable=0;movable=0;resizable=0;rotatable=0;deletable=0;locked=0;connectable=0;recursiveResize=0;cloneable=0;bendable=0;anchorPointDirection=0;expand=0;dropTarget=0;" connectable="0" vertex="1" parent="YSzEwsqtf66Z9LX4W5IN-2">
          <mxGeometry x="5" y="10" width="24" height="24" as="geometry" />
        </mxCell>
        <mxCell id="MNkCJ2_RyF4el_8wQc9y-14" style="vsdxID=8;fillColor=#C0C0C0;gradientColor=none;shape=stencil(rVFBDsIwDHtNj5VCK14wxj8ilm0VZZ3SAuX3tAoIBhwQ4mbHjhMlyjZxxJmUgZg47OnsujQqu1HGuGkkdqkgZVtlmz4wDRyOUyd8xuqs6BBONSFLH9QOAxdha6FbcSLvisR5oQEvvfegFXyMgqwxu6g5JEwuTIupHnkgXcbo3uNwyxEpnonmt/Ivi/1nLfhirQIeZ+6d9/KlZ/31LaUkL7XtFQ==);strokeColor=#000000;spacingTop=-3;spacingBottom=-3;spacingLeft=-3;spacingRight=-3;points=[];labelBackgroundColor=none;rounded=0;html=1;whiteSpace=wrap;connectable=1;resizable=0;editable=1;deletable=0;cloneable=0;movable=0;bendable=0;anchorPointDirection=0;rotatable=0;locked=0;expand=0;" vertex="1" parent="MNkCJ2_RyF4el_8wQc9y-13">
          <mxGeometry y="15" width="9" height="9" as="geometry" />
        </mxCell>
        <mxCell id="MNkCJ2_RyF4el_8wQc9y-15" style="vsdxID=9;fillColor=#C0C0C0;gradientColor=none;shape=stencil(rVFBDsIwDHtNj5VCK14wxj8ilm0VZZ3SAuX3tAoIBhwQ4mbHjhMlyjZxxJmUgZg47OnsujQqu1HGuGkkdqkgZVtlmz4wDRyOUyd8xuqs6BBONSFLH9QOAxdha6FbcSLvisR5oQEvvfegFXyMgqwxu6g5JEwuTIupHnkgXcbo3uNwyxEpnonmt/Ivi/1nLfhirQIeZ+6d9/KlZ/31LaUkL7XtFQ==);strokeColor=#000000;spacingTop=-3;spacingBottom=-3;spacingLeft=-3;spacingRight=-3;points=[];labelBackgroundColor=none;rounded=0;html=1;whiteSpace=wrap;connectable=1;resizable=0;editable=1;deletable=0;cloneable=0;movable=0;bendable=0;anchorPointDirection=0;rotatable=0;locked=0;expand=0;" vertex="1" parent="MNkCJ2_RyF4el_8wQc9y-13">
          <mxGeometry x="15" y="15" width="9" height="9" as="geometry" />
        </mxCell>
        <mxCell id="MNkCJ2_RyF4el_8wQc9y-16" style="vsdxID=10;fillColor=#C0C0C0;gradientColor=none;shape=stencil(rVFBDsIwDHtNj5VCK14wxj8ilm0VZZ3SAuX3tAoIBhwQ4mbHjhMlyjZxxJmUgZg47OnsujQqu1HGuGkkdqkgZVtlmz4wDRyOUyd8xuqs6BBONSFLH9QOAxdha6FbcSLvisR5oQEvvfegFXyMgqwxu6g5JEwuTIupHnkgXcbo3uNwyxEpnonmt/Ivi/1nLfhirQIeZ+6d9/KlZ/31LaUkL7XtFQ==);strokeColor=#000000;spacingTop=-3;spacingBottom=-3;spacingLeft=-3;spacingRight=-3;points=[];labelBackgroundColor=none;rounded=0;html=1;whiteSpace=wrap;connectable=1;resizable=0;editable=1;deletable=0;cloneable=0;movable=0;bendable=0;anchorPointDirection=0;rotatable=0;locked=0;expand=0;" vertex="1" parent="MNkCJ2_RyF4el_8wQc9y-13">
          <mxGeometry x="7" width="9" height="9" as="geometry" />
        </mxCell>
        <mxCell id="MNkCJ2_RyF4el_8wQc9y-17" value="" style="vsdxID=11;edgeStyle=none;startArrow=none;endArrow=none;startSize=5;endSize=5;strokeColor=#000000;spacingTop=-3;spacingBottom=-3;spacingLeft=-3;spacingRight=-3;verticalAlign=middle;html=1;labelBackgroundColor=none;rounded=0;deletable=0;cloneable=0;movable=0;bendable=0;anchorPointDirection=0;editable=0;resizable=1;rotatable=1;locked=0;connectable=1;endFill=1;startFill=1;" edge="1" parent="MNkCJ2_RyF4el_8wQc9y-13">
          <mxGeometry relative="1" as="geometry">
            <Array as="points" />
            <mxPoint x="6" y="15" as="sourcePoint" />
            <mxPoint x="10" y="9" as="targetPoint" />
          </mxGeometry>
        </mxCell>
        <mxCell id="MNkCJ2_RyF4el_8wQc9y-18" value="" style="vsdxID=12;edgeStyle=none;startArrow=none;endArrow=none;startSize=5;endSize=5;strokeColor=#000000;spacingTop=-3;spacingBottom=-3;spacingLeft=-3;spacingRight=-3;verticalAlign=middle;html=1;labelBackgroundColor=none;rounded=0;deletable=0;cloneable=0;movable=0;bendable=0;anchorPointDirection=0;editable=0;resizable=1;rotatable=1;locked=0;connectable=1;endFill=1;startFill=1;" edge="1" parent="MNkCJ2_RyF4el_8wQc9y-13" target="MNkCJ2_RyF4el_8wQc9y-16">
          <mxGeometry relative="1" as="geometry">
            <Array as="points" />
            <mxPoint x="18" y="15" as="sourcePoint" />
            <mxPoint x="15" y="9" as="targetPoint" />
          </mxGeometry>
        </mxCell>
        <object label="&lt;HierarchyLevel&gt;" btelligentADAPTType="HierarchyLevel" id="YSzEwsqtf66Z9LX4W5IN-3">
          <mxCell style="group;fillColor=default;verticalAlign=middle;align=left;spacingLeft=36;whiteSpace=wrap;resizable=0;connectable=1;" connectable="0" vertex="1" parent="1">
            <mxGeometry x="270" y="520.5" width="160" height="40" as="geometry" />
          </mxCell>
        </object>
        <mxCell id="MNkCJ2_RyF4el_8wQc9y-20" value="ADAPT HierarchyLevel" style="rounded=1;whiteSpace=wrap;html=1;arcSize=50;align=left;spacingLeft=38;container=0;fontSize=8;fontColor=none;noLabel=1;fillColor=none;connectable=0;editable=0;movable=0;resizable=0;rotatable=0;deletable=0;locked=0;cloneable=0;expand=0;recursiveResize=0;allowArrows=0;" vertex="1" parent="YSzEwsqtf66Z9LX4W5IN-3">
          <mxGeometry width="160" height="40" as="geometry" />
        </mxCell>
        <mxCell id="MNkCJ2_RyF4el_8wQc9y-21" value="&lt;div style=&quot;font-size: 1px&quot;&gt;&lt;/div&gt;" style="verticalAlign=middle;align=center;overflow=width;vsdxID=9;fillColor=#C0C0C0;gradientColor=none;shape=stencil(UzV2Ls5ILEhVNTIoLinKz04tz0wpyVA1dlE1MsrMy0gtyiwBslSNXVWNndPyi1LTi/JL81Ig/IJEkEoQKze/DGRCBUSfqQFIi5FBJYQL4blBVOZk5iGpRFVoaIBHKUySKMX4XABkIByelpmTA/E3sjy6R4FCkEAydgUA);strokeColor=#000000;spacingTop=-3;spacingBottom=-3;spacingLeft=-3;spacingRight=-3;points=[];labelBackgroundColor=none;rounded=0;html=1;whiteSpace=wrap;container=0;" vertex="1" parent="YSzEwsqtf66Z9LX4W5IN-3">
          <mxGeometry x="12" y="14" width="13" height="11" as="geometry" />
        </mxCell>
        <mxCell id="MNkCJ2_RyF4el_8wQc9y-22" value="&lt;div style=&quot;font-size: 24px;&quot;&gt;&lt;font style=&quot;font-size: 24px; font-family: Calibri; color: rgb(0, 0, 0); direction: ltr; letter-spacing: 0px; line-height: 120%; opacity: 1;&quot;&gt;{&amp;nbsp;  }&lt;br style=&quot;font-size: 24px;&quot;&gt;&lt;/font&gt;&lt;/div&gt;" style="verticalAlign=middle;align=center;overflow=width;vsdxID=10;fillColor=none;gradientColor=none;shape=stencil(nZBLDoAgDERP0z3SIyjew0SURgSD+Lu9kMZoXLhwN9O+tukAlrNpJg1SzDH4QW/URgNYgZTkjA4UkwJUgGXng+6DX1zLfmoymdXo17xh5zmRJ6Q42BWCfc2oJfdAr+Yv+AP9Cb7OJ3H/2JG1HNGz/84klThPVCc=);strokeColor=none;spacingTop=0;spacingBottom=0;spacingLeft=0;spacingRight=0;points=[];labelBackgroundColor=none;rounded=0;html=1;whiteSpace=wrap;container=0;fontSize=24;fontStyle=0;horizontal=1;connectable=0;pointerEvents=0;deletable=0;cloneable=0;rotatable=0;resizable=0;expand=0;recursiveResize=0;allowArrows=0;movable=0;editable=0;" vertex="1" parent="YSzEwsqtf66Z9LX4W5IN-3">
          <mxGeometry x="3" y="3" width="30" height="30" as="geometry" />
        </mxCell>
        <object label="&lt;DimensionMember&gt;" btelligentADAPTType="DimensionMember" id="YSzEwsqtf66Z9LX4W5IN-4">
          <mxCell style="group;fillColor=default;whiteSpace=wrap;spacingLeft=36;verticalAlign=middle;align=left;resizable=0;connectable=1;allowArrows=1;" connectable="0" vertex="1" parent="1">
            <mxGeometry x="320" y="640" width="160" height="40" as="geometry" />
          </mxCell>
        </object>
        <mxCell id="MNkCJ2_RyF4el_8wQc9y-43" value="&lt;font style=&quot;font-size: 8px;&quot;&gt;ADAPT DimensionMember&lt;/font&gt;" style="rounded=1;whiteSpace=wrap;html=1;arcSize=50;align=left;spacingLeft=38;fontColor=none;noLabel=1;fillColor=none;connectable=0;editable=1;movable=0;resizable=0;rotatable=0;deletable=0;locked=0;cloneable=0;recursiveResize=0;expand=0;allowArrows=0;" vertex="1" parent="YSzEwsqtf66Z9LX4W5IN-4">
          <mxGeometry width="160" height="40" as="geometry" />
        </mxCell>
        <mxCell id="MNkCJ2_RyF4el_8wQc9y-44" value="&lt;div style=&quot;font-size: 24px;&quot;&gt;&lt;font style=&quot;font-size: 24px; font-family: Calibri; color: rgb(0, 0, 0); direction: ltr; letter-spacing: 0px; line-height: 120%; opacity: 1;&quot;&gt;{&amp;nbsp;  }&lt;br style=&quot;font-size: 24px;&quot;&gt;&lt;/font&gt;&lt;/div&gt;" style="verticalAlign=middle;align=center;overflow=width;vsdxID=10;fillColor=none;gradientColor=none;shape=stencil(nZBLDoAgDERP0z3SIyjew0SURgSD+Lu9kMZoXLhwN9O+tukAlrNpJg1SzDH4QW/URgNYgZTkjA4UkwJUgGXng+6DX1zLfmoymdXo17xh5zmRJ6Q42BWCfc2oJfdAr+Yv+AP9Cb7OJ3H/2JG1HNGz/84klThPVCc=);strokeColor=none;spacingTop=0;spacingBottom=0;spacingLeft=0;spacingRight=0;points=[];labelBackgroundColor=none;rounded=0;html=1;whiteSpace=wrap;container=0;fontSize=24;fontStyle=0;horizontal=1;connectable=0;pointerEvents=0;deletable=0;cloneable=0;rotatable=0;resizable=0;movable=0;expand=0;allowArrows=0;editable=0;" vertex="1" parent="YSzEwsqtf66Z9LX4W5IN-4">
          <mxGeometry x="3" y="3" width="30" height="30" as="geometry" />
        </mxCell>
        <mxCell id="MNkCJ2_RyF4el_8wQc9y-45" value="" style="ellipse;whiteSpace=wrap;html=1;aspect=fixed;fillColor=#c0c0c0;strokeColor=#330000;connectable=0;pointerEvents=0;deletable=0;cloneable=0;rotatable=0;resizable=0;movable=0;expand=0;allowArrows=0;editable=0;" vertex="1" parent="YSzEwsqtf66Z9LX4W5IN-4">
          <mxGeometry x="13" y="15" width="11" height="11" as="geometry" />
        </mxCell>
        <object label="&lt;Attribute&gt;" btelligentADAPTType="Attribute" id="YSzEwsqtf66Z9LX4W5IN-5">
          <mxCell style="group;fillColor=default;align=left;verticalAlign=middle;spacingLeft=40;whiteSpace=wrap;resizable=0;noLabel=0;overflow=visible;expand=1;treeFolding=0;treeMoving=0;pointerEvents=0;comic=0;connectable=1;" connectable="0" vertex="1" parent="1">
            <mxGeometry x="520" y="640" width="160" height="40" as="geometry" />
          </mxCell>
        </object>
        <mxCell id="MNkCJ2_RyF4el_8wQc9y-47" value="&lt;font style=&quot;font-size: 8px;&quot;&gt;ADAPT Attribute&lt;/font&gt;" style="shape=singleArrow;direction=west;whiteSpace=wrap;html=1;arrowWidth=1;arrowSize=0.125;align=left;spacingLeft=37;fontColor=none;noLabel=1;fillColor=none;container=0;snapToPoint=0;connectable=0;editable=0;deletable=0;cloneable=0;rotatable=0;resizable=0;movable=0;expand=0;recursiveResize=0;allowArrows=0;" vertex="1" parent="YSzEwsqtf66Z9LX4W5IN-5">
          <mxGeometry width="160" height="40" as="geometry" />
        </mxCell>
        <mxCell id="MNkCJ2_RyF4el_8wQc9y-48" style="vsdxID=7;fillColor=#C0C0C0;gradientColor=none;shape=stencil(nZBNDoQgDIVP0z3SeALFe5iI0gwDBvHv9kIaM+rCxezea7++pA+wmkw7apBiisF/9EpdNIA1SEnO6EAxKUAFWPU+6CH42XXsxzaTWX39khM2vitFPpFiZ8uuYdKSu5B3sHwhH5mFeGHP5R+5NzKJ34s9WcsNXffPStKI60R1AA==);strokeColor=#000000;spacingTop=-3;spacingBottom=-3;spacingLeft=-3;spacingRight=-3;points=[];labelBackgroundColor=none;rounded=0;html=1;whiteSpace=wrap;connectable=0;deletable=0;cloneable=0;rotatable=0;resizable=0;movable=0;expand=0;recursiveResize=0;allowArrows=0;editable=0;" vertex="1" parent="YSzEwsqtf66Z9LX4W5IN-5">
          <mxGeometry x="8" y="7.5" width="25" height="25" as="geometry" />
        </mxCell>
        <UserObject label="" tooltip="ADAPT Function" id="YSzEwsqtf66Z9LX4W5IN-12">
          <mxCell style="group" connectable="0" vertex="1" parent="1">
            <mxGeometry x="40" y="360" width="160" height="40" as="geometry" />
          </mxCell>
        </UserObject>
        <mxCell id="YSzEwsqtf66Z9LX4W5IN-13" value="Function" style="shape=parallelogram;perimeter=parallelogramPerimeter;whiteSpace=wrap;html=1;fixedSize=1;size=10;align=left;spacingLeft=37;" vertex="1" parent="YSzEwsqtf66Z9LX4W5IN-12">
          <mxGeometry width="160" height="40" as="geometry" />
        </mxCell>
        <mxCell id="YSzEwsqtf66Z9LX4W5IN-14" value="" style="group" connectable="0" vertex="1" parent="YSzEwsqtf66Z9LX4W5IN-12">
          <mxGeometry x="12" y="10" width="18" height="19.200000000000045" as="geometry" />
        </mxCell>
        <mxCell id="YSzEwsqtf66Z9LX4W5IN-15" style="vsdxID=8;fillColor=none;gradientColor=none;strokeColor=none;spacingTop=-3;spacingBottom=-3;spacingLeft=-3;spacingRight=-3;points=[];labelBackgroundColor=none;rounded=0;html=1;whiteSpace=wrap;" vertex="1" parent="YSzEwsqtf66Z9LX4W5IN-14">
          <mxGeometry x="9.360000000000014" y="5.600000000000023" width="8.64" height="12" as="geometry" />
        </mxCell>
        <mxCell id="YSzEwsqtf66Z9LX4W5IN-16" style="vsdxID=9;fillColor=#FFFFFF;gradientColor=none;shape=stencil(tVHREoIgEPwaHnEQssln0/9gEpXJxDko6e+DOSqzx6a329u9vYMlorKDnBXhzDowZ7Xo1g1EHAnnehoUaBcqImoiqs6A6sFcpxbxLKMyVhdziw4e53LG4gxnd8SIGpRKOAUGkpQXh6zYoxqSPC8zscOWXxs87YoEPZVeWwrGSafNhGSZyFFCr2hYRrtR9h82dlFq/mr/cN72vS/8lwtD8f54zGzNbUMKLQxY1A8=);strokeColor=#000000;spacingTop=-3;spacingBottom=-3;spacingLeft=-3;spacingRight=-3;points=[];labelBackgroundColor=none;rounded=0;html=1;whiteSpace=wrap;" vertex="1" parent="YSzEwsqtf66Z9LX4W5IN-15">
          <mxGeometry width="2.16" height="12" as="geometry" />
        </mxCell>
        <mxCell id="YSzEwsqtf66Z9LX4W5IN-17" style="vsdxID=10;fillColor=#FFFFFF;gradientColor=none;shape=stencil(tVHREoIgEPwaHnEQssln0/9gEpXJxDko6e+DOSqzx6a329u9vYMlorKDnBXhzDowZ7Xo1g1EHAnnehoUaBcqImoiqs6A6sFcpxbxLKMyVhdziw4e53LG4gxnd8SIGpRKOAUGkpQXh6zYoxqSPC8zscOWXxs87YoEPZVeWwrGSafNhGSZyFFCr2hYRrtR9h82dlFq/mr/cN72vS/8lwtD8f54zGzNbUMKLQxY1A8=);strokeColor=#000000;spacingTop=-3;spacingBottom=-3;spacingLeft=-3;spacingRight=-3;flipH=1;points=[];labelBackgroundColor=none;rounded=0;html=1;whiteSpace=wrap;" vertex="1" parent="YSzEwsqtf66Z9LX4W5IN-15">
          <mxGeometry x="6.48" width="2.16" height="12" as="geometry" />
        </mxCell>
        <mxCell id="YSzEwsqtf66Z9LX4W5IN-18" style="vsdxID=11;fillColor=none;gradientColor=none;strokeColor=none;spacingTop=-3;spacingBottom=-3;spacingLeft=-3;spacingRight=-3;points=[];labelBackgroundColor=none;rounded=0;html=1;whiteSpace=wrap;" vertex="1" parent="YSzEwsqtf66Z9LX4W5IN-14">
          <mxGeometry width="9.36" height="19.200000000000003" as="geometry" />
        </mxCell>
        <mxCell id="YSzEwsqtf66Z9LX4W5IN-19" style="vsdxID=12;fillColor=#FFFFFF;gradientColor=none;shape=stencil(rVHREoIgEPwaHnEQbNJns/9gEoXJxDko7e+DOSqtt6a329u9u4UlonZaTopw5jzYs5pN6zURB8K5GbUC40NFRENE3VlQPdjr2CKeZFTG6mJvccOCczljcYazO2JER5RKOAUGkrSssqJEMSQ132dVga0k2m3XPeFC5WIcBeulN3ZEskrkIKFXNByj3SD7tQ/mZqWmr/bv9rbuXo//l718bS8U71/HwNbcZ0KhhemK5gE=);strokeColor=#000000;spacingTop=-3;spacingBottom=-3;spacingLeft=-3;spacingRight=-3;points=[];labelBackgroundColor=none;rounded=0;html=1;whiteSpace=wrap;" vertex="1" parent="YSzEwsqtf66Z9LX4W5IN-18">
          <mxGeometry width="9.36" height="19.200000000000003" as="geometry" />
        </mxCell>
        <mxCell id="YSzEwsqtf66Z9LX4W5IN-20" style="vsdxID=13;edgeStyle=none;startArrow=none;endArrow=none;startSize=5;endSize=5;strokeColor=#000000;spacingTop=-3;spacingBottom=-3;spacingLeft=-3;spacingRight=-3;verticalAlign=middle;html=1;labelBackgroundColor=none;rounded=0;" edge="1" parent="YSzEwsqtf66Z9LX4W5IN-18">
          <mxGeometry relative="1" as="geometry">
            <mxPoint as="offset" />
            <Array as="points" />
            <mxPoint x="2.16" y="8.800000000000002" as="sourcePoint" />
            <mxPoint x="7.199999999999999" y="8.800000000000002" as="targetPoint" />
          </mxGeometry>
        </mxCell>
        <UserObject label="" tooltip="ADAPT MeasureGroup" id="YSzEwsqtf66Z9LX4W5IN-21">
          <mxCell style="group" connectable="0" vertex="1" parent="1">
            <mxGeometry x="40" y="441" width="160" height="119.5" as="geometry" />
          </mxCell>
        </UserObject>
        <mxCell id="YSzEwsqtf66Z9LX4W5IN-22" value="&lt;ul&gt;&lt;li style=&quot;font-size: 12px;&quot;&gt;Dimension&lt;br&gt;&lt;/li&gt;&lt;li style=&quot;font-size: 12px;&quot;&gt;Dimension (Rolle)&lt;br&gt;&lt;/li&gt;&lt;li style=&quot;font-size: 12px;&quot;&gt;Dimension&lt;br&gt;&lt;/li&gt;&lt;/ul&gt;" style="rounded=1;whiteSpace=wrap;html=1;arcSize=12;align=left;spacingLeft=-16;verticalAlign=top;spacingTop=30;fontSize=12;" vertex="1" parent="YSzEwsqtf66Z9LX4W5IN-21">
          <mxGeometry width="160" height="119.5" as="geometry" />
        </mxCell>
        <mxCell id="YSzEwsqtf66Z9LX4W5IN-23" value="Measuregroup" style="rounded=1;whiteSpace=wrap;html=1;arcSize=50;align=left;spacingLeft=38;strokeColor=#FFFFFF;fontStyle=0" vertex="1" parent="YSzEwsqtf66Z9LX4W5IN-21">
          <mxGeometry x="3" y="3.5" width="153" height="36" as="geometry" />
        </mxCell>
        <mxCell id="YSzEwsqtf66Z9LX4W5IN-24" value="" style="group" connectable="0" vertex="1" parent="YSzEwsqtf66Z9LX4W5IN-21">
          <mxGeometry x="10.775000000000091" y="8.149999999999977" width="21.450000000000003" height="24.699999999999996" as="geometry" />
        </mxCell>
        <mxCell id="YSzEwsqtf66Z9LX4W5IN-25" style="vsdxID=9;fillColor=#FFFFFF;gradientColor=none;shape=stencil(jZBNDoQgDIVP063BdsEBHOceJqI0w4BB5u/2A+lCZWHcvbZfm9cH1K12WAygWlMMD/PhMVmgGyCytyZyygqoB+qmEM0cw8uPUi9DIYt6hne58JW9Vqmyg+p3rO8CO/Y7+IhqbDRdhU+u1hZQN6iv45XjLLZfJ3ZOotrP62xyS3Kl/g8=);strokeColor=#000000;spacingTop=-3;spacingBottom=-3;spacingLeft=-3;spacingRight=-3;points=[];labelBackgroundColor=none;rounded=0;html=1;whiteSpace=wrap;" vertex="1" parent="YSzEwsqtf66Z9LX4W5IN-24">
          <mxGeometry y="5.6999999999999975" width="10.725000000000001" height="18.999999999999986" as="geometry" />
        </mxCell>
        <mxCell id="YSzEwsqtf66Z9LX4W5IN-26" style="vsdxID=10;fillColor=#FFFFFF;gradientColor=none;shape=stencil(jZBNDoQgDIVP063BdsEBHOceJqI0w4BB5u/2A+lCZWHcvbZfm9cH1K12WAygWlMMD/PhMVmgGyCytyZyygqoB+qmEM0cw8uPUi9DIYt6hne58JW9Vqmyg+p3rO8CO/Y7+IhqbDRdhU+u1hZQN6iv45XjLLZfJ3ZOotrP62xyS3Kl/g8=);strokeColor=#000000;spacingTop=-3;spacingBottom=-3;spacingLeft=-3;spacingRight=-3;flipH=1;points=[];labelBackgroundColor=none;rounded=0;html=1;whiteSpace=wrap;" vertex="1" parent="YSzEwsqtf66Z9LX4W5IN-24">
          <mxGeometry x="10.725000000000001" y="5.6999999999999975" width="10.725000000000001" height="18.999999999999986" as="geometry" />
        </mxCell>
        <mxCell id="YSzEwsqtf66Z9LX4W5IN-27" value="&lt;div style=&quot;font-size: 1px&quot;&gt;&lt;/div&gt;" style="verticalAlign=middle;align=center;overflow=width;vsdxID=11;fillColor=#C0C0C0;gradientColor=none;shape=stencil(nZBNCoQwDIVPk31t8ASO3kOw2mBtpVaduf20BPEHceHuveRLSB5gMel6VCDFFLzr1UpN0IAfkJKsVp5CVIAlYNE6rzrvZtuwH+tEJjW4JW348lwmRJqR4sc+Z1sxa8ge2PyMPpCvd27n3LLPt0axP9mSMZzRsX8NJZY4UCz/);strokeColor=#000000;spacingTop=-3;spacingBottom=-3;spacingLeft=-3;spacingRight=-3;points=[];labelBackgroundColor=none;rounded=0;html=1;whiteSpace=wrap;" vertex="1" parent="YSzEwsqtf66Z9LX4W5IN-24">
          <mxGeometry width="21.450000000000003" height="11.399999999999995" as="geometry" />
        </mxCell>
        <mxCell id="YSzEwsqtf66Z9LX4W5IN-28" value="" style="endArrow=none;html=1;rounded=0;" edge="1" parent="YSzEwsqtf66Z9LX4W5IN-21">
          <mxGeometry width="50" height="50" relative="1" as="geometry">
            <mxPoint x="3" y="39.5" as="sourcePoint" />
            <mxPoint x="158" y="39.5" as="targetPoint" />
            <Array as="points">
              <mxPoint x="73" y="39.5" />
            </Array>
          </mxGeometry>
        </mxCell>
        <mxCell id="YSzEwsqtf66Z9LX4W5IN-29" value="&lt;DimensionScope&gt;" style="group;fillColor=default;align=left;verticalAlign=middle;spacingLeft=36;resizable=0;" connectable="0" vertex="1" parent="1">
          <mxGeometry x="40" y="280" width="160" height="40" as="geometry" />
        </mxCell>
        <mxCell id="YSzEwsqtf66Z9LX4W5IN-10" value="&lt;font style=&quot;font-size: 8px;&quot;&gt;ADAPT DimensionScope&lt;/font&gt;" style="rounded=1;whiteSpace=wrap;html=1;arcSize=50;align=left;spacingLeft=38;fillColor=none;fontColor=none;noLabel=1;editable=0;" vertex="1" parent="YSzEwsqtf66Z9LX4W5IN-29">
          <mxGeometry width="160" height="40" as="geometry" />
        </mxCell>
        <mxCell id="YSzEwsqtf66Z9LX4W5IN-11" value="&lt;div style=&quot;font-size: 24px;&quot;&gt;&lt;font style=&quot;font-size: 24px; font-family: Calibri; color: rgb(0, 0, 0); direction: ltr; letter-spacing: 0px; line-height: 120%; opacity: 1;&quot;&gt;{&amp;nbsp;  }&lt;br style=&quot;font-size: 24px;&quot;&gt;&lt;/font&gt;&lt;/div&gt;" style="verticalAlign=middle;align=center;overflow=width;vsdxID=10;fillColor=none;gradientColor=none;shape=stencil(nZBLDoAgDERP0z3SIyjew0SURgSD+Lu9kMZoXLhwN9O+tukAlrNpJg1SzDH4QW/URgNYgZTkjA4UkwJUgGXng+6DX1zLfmoymdXo17xh5zmRJ6Q42BWCfc2oJfdAr+Yv+AP9Cb7OJ3H/2JG1HNGz/84klThPVCc=);strokeColor=none;spacingTop=0;spacingBottom=0;spacingLeft=0;spacingRight=0;points=[];labelBackgroundColor=none;rounded=0;html=1;whiteSpace=wrap;container=0;fontSize=24;fontStyle=0;horizontal=1;editable=0;" vertex="1" parent="YSzEwsqtf66Z9LX4W5IN-29">
          <mxGeometry x="3" y="3" width="30" height="30" as="geometry" />
        </mxCell>
        <object label="&lt;Dimension&gt;" btelligentADAPTType="Dimension" id="YSzEwsqtf66Z9LX4W5IN-50">
          <mxCell style="group;fillColor=default;resizable=0;expand=0;recursiveResize=0;dropTarget=1;align=left;verticalAlign=middle;spacingLeft=34;rotatable=0;editable=1;movable=1;deletable=1;locked=0;connectable=1;metaEdit=0;backgroundOutline=0;" connectable="0" vertex="1" parent="1">
            <mxGeometry x="270" y="270" width="160" height="40" as="geometry" />
          </mxCell>
        </object>
        <mxCell id="YSzEwsqtf66Z9LX4W5IN-32" value="ADAPT Dimension" style="rounded=0;whiteSpace=wrap;html=1;align=left;spacingLeft=37;fontStyle=0;fontFamily=Helvetica;fontSize=8;container=0;fillColor=none;fontColor=none;noLabel=1;connectable=0;allowArrows=0;expand=0;movable=0;resizable=0;deletable=0;cloneable=0;rotatable=0;recursiveResize=0;editable=0;locked=0;" vertex="1" parent="YSzEwsqtf66Z9LX4W5IN-50">
          <mxGeometry width="160" height="40" as="geometry" />
        </mxCell>
        <mxCell id="YSzEwsqtf66Z9LX4W5IN-48" value="" style="group;deletable=0;cloneable=0;rotatable=0;resizable=0;movable=0;expand=0;recursiveResize=0;dropTarget=0;allowArrows=0;container=0;editable=0;" connectable="0" vertex="1" parent="YSzEwsqtf66Z9LX4W5IN-50">
          <mxGeometry x="6.080000000000041" y="4" width="22" height="32" as="geometry" />
        </mxCell>
        <mxCell id="YSzEwsqtf66Z9LX4W5IN-49" value="" style="group;cloneable=0;deletable=0;rotatable=0;resizable=0;movable=0;expand=0;recursiveResize=0;dropTarget=0;allowArrows=0;editable=0;" connectable="0" vertex="1" parent="YSzEwsqtf66Z9LX4W5IN-50">
          <mxGeometry x="6.080000000000041" y="4" width="22" height="32" as="geometry" />
        </mxCell>
        <mxCell id="YSzEwsqtf66Z9LX4W5IN-38" value="" style="rounded=0;whiteSpace=wrap;html=1;fillColor=#000000;fontColor=#ffffff;strokeColor=#000000;strokeWidth=1;deletable=1;cloneable=0;movable=0;editable=0;resizable=0;rotatable=0;locked=0;connectable=0;container=0;expand=0;recursiveResize=0;allowArrows=0;" vertex="1" parent="YSzEwsqtf66Z9LX4W5IN-49">
          <mxGeometry y="10" width="10" height="10" as="geometry" />
        </mxCell>
        <mxCell id="YSzEwsqtf66Z9LX4W5IN-43" value="" style="endArrow=block;html=1;rounded=0;endFill=1;startSize=2;endSize=3;strokeWidth=1;deletable=1;cloneable=0;movable=1;editable=0;resizable=1;rotatable=1;locked=0;connectable=1;" edge="1" parent="YSzEwsqtf66Z9LX4W5IN-49">
          <mxGeometry width="50" height="50" relative="1" as="geometry">
            <mxPoint x="9" y="10" as="sourcePoint" />
            <mxPoint x="22" y="10" as="targetPoint" />
          </mxGeometry>
        </mxCell>
        <mxCell id="YSzEwsqtf66Z9LX4W5IN-44" value="" style="endArrow=block;html=1;rounded=0;endFill=1;startSize=2;endSize=3;strokeWidth=1;deletable=1;cloneable=0;movable=1;editable=0;resizable=1;rotatable=1;locked=0;connectable=1;" edge="1" parent="YSzEwsqtf66Z9LX4W5IN-49">
          <mxGeometry width="50" height="50" relative="1" as="geometry">
            <mxPoint y="18" as="sourcePoint" />
            <mxPoint y="32" as="targetPoint" />
          </mxGeometry>
        </mxCell>
        <mxCell id="YSzEwsqtf66Z9LX4W5IN-47" value="" style="endArrow=block;html=1;rounded=0;endFill=1;startSize=2;endSize=3;strokeWidth=1;deletable=1;cloneable=0;movable=1;editable=1;resizable=1;rotatable=1;locked=0;connectable=1;" edge="1" parent="YSzEwsqtf66Z9LX4W5IN-49">
          <mxGeometry width="50" height="50" relative="1" as="geometry">
            <mxPoint y="10" as="sourcePoint" />
            <mxPoint x="11" as="targetPoint" />
          </mxGeometry>
        </mxCell>
        <UserObject label="" btelligentADAPTType="StrictPrecedence" id="YSzEwsqtf66Z9LX4W5IN-55">
          <mxCell style="vsdxID=5;edgeStyle=orthogonalEdgeStyle;startArrow=none;endArrow=doubleBlock;startSize=0;endSize=10;strokeColor=#000000;spacingTop=0;spacingBottom=0;spacingLeft=0;spacingRight=0;verticalAlign=middle;html=1;labelBackgroundColor=#FFFFFF;rounded=1;jumpStyle=arc;startFill=0;sourcePerimeterSpacing=0;endFill=1;" edge="1" parent="1" source="YSzEwsqtf66Z9LX4W5IN-3" target="YSzEwsqtf66Z9LX4W5IN-2">
            <mxGeometry x="-0.194" relative="1" as="geometry">
              <mxPoint x="410" y="650" as="sourcePoint" />
              <mxPoint x="410" y="570" as="targetPoint" />
              <mxPoint as="offset" />
            </mxGeometry>
          </mxCell>
        </UserObject>
        <UserObject label="comment" btelligentADAPTType="StrictPrecedence" id="YSzEwsqtf66Z9LX4W5IN-56">
          <mxCell style="vsdxID=5;edgeStyle=orthogonalEdgeStyle;startArrow=none;endArrow=doubleBlock;startSize=0;endSize=10;strokeColor=#000000;spacingTop=0;spacingBottom=0;spacingLeft=0;spacingRight=0;verticalAlign=middle;html=1;labelBackgroundColor=#FFFFFF;rounded=1;jumpStyle=arc;startFill=0;sourcePerimeterSpacing=0;endFill=1;" edge="1" parent="1" source="YSzEwsqtf66Z9LX4W5IN-4" target="YSzEwsqtf66Z9LX4W5IN-3">
            <mxGeometry x="-0.194" relative="1" as="geometry">
              <mxPoint x="470" y="611" as="sourcePoint" />
              <mxPoint x="470" y="510" as="targetPoint" />
              <mxPoint as="offset" />
            </mxGeometry>
          </mxCell>
        </UserObject>
        <UserObject label="" tooltip="" btelligentADAPTType="LoosePrecedence" id="YSzEwsqtf66Z9LX4W5IN-57">
          <mxCell style="vsdxID=5;edgeStyle=elbowEdgeStyle;startArrow=none;endArrow=block;startSize=10;endSize=10;strokeColor=#000000;spacingTop=0;spacingBottom=0;spacingLeft=0;spacingRight=0;verticalAlign=middle;html=1;labelBackgroundColor=#FFFFFF;rounded=1;jumpStyle=arc;startFill=0;endFill=1;curved=0;orthogonal=0;orthogonalLoop=0;ignoreEdge=0;noJump=0;" edge="1" parent="1" source="YSzEwsqtf66Z9LX4W5IN-4" target="YSzEwsqtf66Z9LX4W5IN-5">
            <mxGeometry x="-0.1429" relative="1" as="geometry">
              <mxPoint x="490" y="570" as="sourcePoint" />
              <mxPoint x="490" y="640" as="targetPoint" />
              <mxPoint as="offset" />
            </mxGeometry>
          </mxCell>
        </UserObject>
      </root>
    </mxGraphModel>
  </diagram>
</mxfile>
